<?xml version="1.0" encoding="UTF-8" standalone="no"?><!DOCTYPE svg PUBLIC "-//W3C//DTD SVG 1.1//EN" "http://www.w3.org/Graphics/SVG/1.1/DTD/svg11.dtd"><svg width="100%" height="100%" viewBox="0 0 40 34" version="1.1" xmlns="http://www.w3.org/2000/svg" xmlns:xlink="http://www.w3.org/1999/xlink" xml:space="preserve" xmlns:serif="http://www.serif.com/" style="fill-rule:evenodd;clip-rule:evenodd;stroke-linejoin:round;stroke-miterlimit:2;"><path d="M34.542,21.669l-26.326,0c-0.321,-0 -0.585,-0.264 -0.585,-0.585c0,-0.321 0.264,-0.585 0.585,-0.585l26.326,0c0.321,0 0.585,0.264 0.585,0.585c0,0.321 -0.264,0.585 -0.585,0.585Zm0,2.218l-26.326,0c-0.321,0 -0.585,-0.264 -0.585,-0.585c-0,-0.321 0.264,-0.585 0.585,-0.585l26.326,0c0.321,0 0.585,0.264 0.585,0.585c0,0.321 -0.264,0.585 -0.585,0.585Z" style="fill:#ff6740;fill-rule:nonzero;"/><path d="M30.233,23.229l0,3.912l1.675,-0.97l1.676,0.97l0,-3.911l-3.35,0l-0.001,-0.001Z" style="fill:#ff6740;fill-rule:nonzero;"/><path d="M35.715,10.866l-4.403,0l0,2.441l4.403,0l0,-2.441Z" style="fill:#272b30;fill-rule:nonzero;"/><path d="M38.08,13.928c-0.021,-0.02 -0.043,-0.037 -0.065,-0.056c-0.505,-0.438 -0.932,-0.957 -1.266,-1.536l-0.009,-0.018l-0.001,0c-0.377,-0.663 -0.621,-1.394 -0.72,-2.15c-0.004,-0.047 -0.01,-0.093 -0.015,-0.14l0,-0.009c-0.042,-0.266 -0.155,-0.517 -0.327,-0.725l-0.048,-0.054c-1.402,-1.578 -3.251,-2.693 -5.301,-3.198c-0.057,-1.214 0.223,-2.42 0.81,-3.484c0.03,-0.055 0.046,-0.118 0.046,-0.181c0,-0.206 -0.169,-0.376 -0.376,-0.376l-0.028,0c-2.593,0.42 -5.011,1.576 -6.965,3.33c-1.141,1.02 -2.104,2.223 -2.85,3.56c-0.554,-0.297 -1.13,-0.553 -1.722,-0.764c-1.772,-0.635 -3.662,-0.873 -5.536,-0.697c-1.441,0.13 -2.849,0.503 -4.165,1.105c-4.163,1.902 -7.137,5.955 -7.503,10.735c-0.026,0.33 -0.039,0.665 -0.039,1l0,3.233c0,0.56 0.083,1.098 0.237,1.605c0.417,1.369 1.347,2.526 2.596,3.226c0.76,0.427 1.63,0.68 2.56,0.704l8.212,0c0.081,-0.006 0.162,-0.006 0.243,0c0.013,0 0.026,0 0.04,0.003c0.021,0.001 0.042,0.002 0.064,0.005c0.892,0.103 1.601,0.811 1.706,1.702c0.012,0.076 0.016,0.153 0.014,0.23l-0.001,0.036l0,0.004c0.015,0.656 0.361,1.263 0.918,1.61c0.306,0.189 0.66,0.29 1.02,0.29c1.013,-0 1.864,-0.794 1.935,-1.804c0.002,-0.025 0.004,-0.05 0.004,-0.077l0,-0.108c0,-0.662 -0.11,-1.3 -0.313,-1.891c-0.293,-0.851 -0.779,-1.623 -1.421,-2.254c-1.088,-1.074 -2.558,-1.677 -4.087,-1.676l-6.847,0c-0.016,0.002 -0.033,0.002 -0.05,0.002c-0.016,0 -0.033,0 -0.05,-0.002c-1.583,-0.026 -2.871,-1.335 -2.87,-2.918c-0,-0 -0,-0.001 -0,-0.001c-0,-1.602 1.318,-2.92 2.92,-2.92l26.106,0c0.656,-0.001 1.24,-0.426 1.443,-1.05l0.02,-0.07c0.091,-0.294 0.27,-0.55 0.506,-0.737l0.004,-0.002c0.018,-0.016 0.038,-0.03 0.058,-0.044c0.026,-0.02 0.054,-0.038 0.082,-0.055c1.045,-0.779 1.465,-2.156 1.032,-3.385l-0.001,0.002Zm-3.487,-1.165c-0.061,-0 -0.121,-0.015 -0.175,-0.044c-0.43,-0.249 -0.936,-0.332 -1.423,-0.234c-0.212,0.04 -0.412,0.114 -0.595,0.215l-0.008,0.006c-0.012,0.004 -0.022,0.011 -0.032,0.018c-0.048,0.022 -0.1,0.033 -0.152,0.033c-0.203,-0 -0.369,-0.167 -0.369,-0.369c-0,-0.118 0.056,-0.229 0.151,-0.298l0.036,-0.022c0.848,-0.476 1.887,-0.476 2.735,0l0.036,0.022c0.103,0.068 0.164,0.183 0.164,0.306c0,0.201 -0.165,0.367 -0.367,0.367c-0,0 -0.001,0 -0.001,-0Z" style="fill:#f1f1f1;fill-rule:nonzero;"/><path d="M38.08,13.928c-0.021,-0.02 -0.043,-0.037 -0.065,-0.056c-0.505,-0.438 -0.932,-0.957 -1.266,-1.536l-0.009,-0.018l-0.001,0c-0.377,-0.663 -0.621,-1.394 -0.72,-2.15c-0.004,-0.047 -0.01,-0.093 -0.015,-0.14l0,-0.009c-0.042,-0.266 -0.155,-0.517 -0.327,-0.725l-0.048,-0.054c-1.402,-1.578 -3.251,-2.693 -5.301,-3.198c-0.057,-1.214 0.223,-2.42 0.81,-3.484c0.03,-0.055 0.046,-0.118 0.046,-0.181c0,-0.206 -0.169,-0.376 -0.376,-0.376l-0.028,0c-2.593,0.42 -5.011,1.576 -6.965,3.33c-1.141,1.02 -2.104,2.223 -2.85,3.56c-0.554,-0.297 -1.13,-0.553 -1.722,-0.764c-1.772,-0.635 -3.662,-0.873 -5.536,-0.697c-1.441,0.13 -2.849,0.503 -4.165,1.105c-4.163,1.902 -7.137,5.955 -7.503,10.735c-0.026,0.33 -0.039,0.665 -0.039,1l0,3.233c0,0.56 0.083,1.098 0.237,1.605c0.417,1.369 1.347,2.526 2.596,3.226c0.76,0.427 1.63,0.68 2.56,0.704l8.212,0c0.081,-0.006 0.162,-0.006 0.243,0c0.013,0 0.026,0 0.04,0.003c0.021,0.001 0.042,0.002 0.064,0.005c0.892,0.103 1.601,0.811 1.706,1.702c0.012,0.076 0.016,0.153 0.014,0.23l-0.001,0.036l0,0.004c0.015,0.656 0.361,1.263 0.918,1.61c0.306,0.189 0.66,0.29 1.02,0.29c1.013,-0 1.864,-0.794 1.935,-1.804c0.002,-0.025 0.004,-0.05 0.004,-0.077l0,-0.108c0,-0.662 -0.11,-1.3 -0.313,-1.891c-0.293,-0.851 -0.779,-1.623 -1.421,-2.254c-1.088,-1.074 -2.558,-1.677 -4.087,-1.676l-6.847,0c-0.016,0.002 -0.033,0.002 -0.05,0.002c-0.016,0 -0.033,0 -0.05,-0.002c-1.583,-0.026 -2.871,-1.335 -2.87,-2.918c-0,-0 -0,-0.001 -0,-0.001c-0,-1.602 1.318,-2.92 2.92,-2.92l26.106,0c0.656,-0.001 1.24,-0.426 1.443,-1.05l0.02,-0.07c0.091,-0.294 0.27,-0.55 0.506,-0.737l0.004,-0.002c0.018,-0.016 0.038,-0.03 0.058,-0.044c0.026,-0.02 0.054,-0.038 0.082,-0.055c1.045,-0.779 1.465,-2.156 1.032,-3.385l-0.001,0.002Zm-3.487,-1.165c-0.061,-0 -0.121,-0.015 -0.175,-0.044c-0.43,-0.249 -0.936,-0.332 -1.423,-0.234c-0.212,0.04 -0.412,0.114 -0.595,0.215l-0.008,0.006c-0.012,0.004 -0.022,0.011 -0.032,0.018c-0.048,0.022 -0.1,0.033 -0.152,0.033c-0.203,-0 -0.369,-0.167 -0.369,-0.369c-0,-0.118 0.056,-0.229 0.151,-0.298l0.036,-0.022c0.848,-0.476 1.887,-0.476 2.735,0l0.036,0.022c0.103,0.068 0.164,0.183 0.164,0.306c0,0.201 -0.165,0.367 -0.367,0.367c-0,0 -0.001,0 -0.001,-0Z" style="fill:#e6e6e6;fill-rule:nonzero;"/><path d="M21.005,8.824c0.703,3.38 3.635,5.915 7.147,5.915c2.067,0 3.933,-0.88 5.262,-2.292l-0.021,-0.001c-0.137,0 -0.27,0.013 -0.398,0.04c-0.212,0.038 -0.412,0.113 -0.595,0.214l-0.008,0.006c-0.012,0.004 -0.023,0.011 -0.033,0.019c-0.051,0.025 -0.106,0.038 -0.163,0.038c-0.202,-0 -0.368,-0.166 -0.369,-0.368c-0,-0.128 0.064,-0.239 0.162,-0.305l0.037,-0.022c0.593,-0.333 1.287,-0.437 1.952,-0.294c0.638,-0.862 1.084,-1.85 1.309,-2.898c-1.357,-1.388 -3.075,-2.37 -4.96,-2.834c-0.057,-1.214 0.223,-2.421 0.81,-3.485c0.03,-0.055 0.046,-0.118 0.046,-0.181c0,-0.206 -0.169,-0.376 -0.376,-0.376c-0,-0 -0.001,-0 -0.002,0c-0.008,0 -0.017,0 -0.026,0.002c-2.593,0.419 -5.011,1.575 -6.965,3.33c-1.121,1.003 -2.07,2.183 -2.81,3.492l0.001,-0Z" style="fill:#ff6740;fill-rule:nonzero;"/><path d="M36.145,15.807c-0.318,-0.095 -0.634,-0.189 -0.955,-0.26c-0.954,-0.238 -1.926,-0.391 -2.907,-0.459c-0.652,-0.054 -1.306,-0.027 -1.956,0.023l-0.488,0.054c-0.162,0.023 -0.32,0.062 -0.482,0.09c-0.328,0.04 -0.636,0.16 -0.962,0.228c0.606,-0.278 1.247,-0.471 1.906,-0.572c0.66,-0.099 1.332,-0.133 1.998,-0.083c0.665,0.045 1.325,0.15 1.972,0.313c0.646,0.157 1.274,0.38 1.874,0.666Zm-0.287,0.6c-0.328,-0.047 -0.654,-0.093 -0.983,-0.115c-0.979,-0.094 -1.964,-0.101 -2.944,-0.022c-0.653,0.043 -1.295,0.167 -1.93,0.313l-0.475,0.126c-0.156,0.047 -0.308,0.108 -0.463,0.16c-0.319,0.089 -0.605,0.252 -0.917,0.369c0.558,-0.365 1.163,-0.651 1.8,-0.849c0.638,-0.199 1.297,-0.327 1.963,-0.38c0.665,-0.05 1.335,-0.05 1.997,0.018c0.662,0.06 1.316,0.187 1.952,0.38Zm-0.045,0.699c-0.33,0.026 -0.659,0.051 -0.985,0.1c-0.975,0.12 -1.938,0.326 -2.878,0.614c-0.628,0.183 -1.228,0.442 -1.818,0.723l-0.435,0.225c-0.143,0.08 -0.278,0.172 -0.418,0.257c-0.293,0.155 -0.537,0.376 -0.817,0.557c0.466,-0.477 0.996,-0.886 1.575,-1.217c0.58,-0.332 1.196,-0.599 1.835,-0.794c0.637,-0.197 1.291,-0.335 1.953,-0.415c0.659,-0.085 1.325,-0.102 1.988,-0.05Z" style="fill:#272b30;fill-rule:nonzero;"/><path d="M38.015,13.872c-0.11,-0.096 -0.217,-0.196 -0.32,-0.3c-0.289,0.175 -0.467,0.49 -0.467,0.828c0,0.53 0.437,0.967 0.967,0.968l0.015,0c0.006,-0.041 0.016,-0.08 0.02,-0.122c0.051,-0.445 -0,-0.896 -0.15,-1.319l-0.065,-0.055Z" style="fill:#f27baa;fill-rule:nonzero;"/><path d="M29.993,6.54c-0,0.046 -0,0.092 0.002,0.138c-1.169,0.475 -2.242,1.158 -3.166,2.017c-0.417,-2.881 1.498,-5.626 4.345,-6.23c-0.773,1.218 -1.182,2.632 -1.18,4.075l-0.001,0Z" style="fill:#fff;fill-rule:nonzero;"/><path d="M19.814,26.785c-0.129,-0.126 -0.264,-0.246 -0.404,-0.36c-1.452,0.299 -2.667,1.295 -3.245,2.66c0.879,0.202 1.507,0.991 1.507,1.893l-0.001,0.037l0,0.004c0.016,0.657 0.361,1.263 0.918,1.611c0.306,0.189 0.66,0.29 1.02,0.29c1.042,-0 1.908,-0.84 1.939,-1.882l0,-0.108c0,-0.662 -0.11,-1.3 -0.313,-1.891c-0.293,-0.851 -0.78,-1.623 -1.421,-2.255l0,0.001Z" style="fill:#ff6740;fill-rule:nonzero;"/></svg>